<?xml version="1.0" encoding="UTF-8" standalone="no"?>
<!DOCTYPE svg PUBLIC "-//W3C//DTD SVG 1.1//EN"
 "http://www.w3.org/Graphics/SVG/1.1/DTD/svg11.dtd">
<!-- Generated by graphviz version 2.40.1 (20161225.0304)
 -->
<!-- Title: multi Pages: 1 -->
<svg width="186pt" height="318pt"
 viewBox="14.40 14.40 171.91 303.40" xmlns="http://www.w3.org/2000/svg" xmlns:xlink="http://www.w3.org/1999/xlink">
<g id="graph0" class="graph" transform="scale(1 1) rotate(0) translate(18.4 299.4)">
<title>multi</title>
<polygon fill="#ffffff" stroke="transparent" points="-4,4 -4,-285 153.5098,-285 153.5098,4 -4,4"/>
<!-- u -->
<g id="node1" class="node">
<title>u</title>
<polygon fill="none" stroke="#000000" stroke-width=".5" points="10.5171,-202.5 10.5171,-280.5 138.9927,-280.5 138.9927,-202.5 10.5171,-202.5"/>
<text text-anchor="start" x="18.5171" y="-237.3" font-family="Helvetica,sans-Serif" font-size="14.00" fill="#000000">Users</text>
<polyline fill="none" stroke="#000000" stroke-width=".5" points="63.0757,-202.5 63.0757,-280.5 "/>
<text text-anchor="start" x="75.3516" y="-266.3" font-family="Helvetica,sans-Serif" font-weight="bold" font-size="14.00" fill="#000000">user_id*</text>
<text text-anchor="start" x="84.3066" y="-252.3" font-family="Helvetica,sans-Serif" font-size="14.00" fill="#000000">email</text>
<text text-anchor="start" x="71.0757" y="-238.3" font-family="Helvetica,sans-Serif" font-size="14.00" fill="#000000">password</text>
<text text-anchor="start" x="89.355" y="-224.3" font-family="Helvetica,sans-Serif" font-size="14.00" fill="#000000">age</text>
<text text-anchor="start" x="76.9067" y="-210.3" font-family="Helvetica,sans-Serif" font-size="14.00" fill="#000000">zipcode</text>
</g>
<!-- r -->
<g id="node3" class="node">
<title>r</title>
<polygon fill="none" stroke="#000000" stroke-width=".5" points="5.4448,-101.5 5.4448,-165.5 144.0649,-165.5 144.0649,-101.5 5.4448,-101.5"/>
<text text-anchor="start" x="13.4448" y="-129.3" font-family="Helvetica,sans-Serif" font-size="14.00" fill="#000000">Ratings</text>
<polyline fill="none" stroke="#000000" stroke-width=".5" points="68.9136,-101.5 68.9136,-165.5 "/>
<text text-anchor="start" x="76.9136" y="-151.3" font-family="Helvetica,sans-Serif" font-weight="bold" font-size="14.00" fill="#000000">rating_id*</text>
<text text-anchor="start" x="78.4756" y="-137.3" font-family="Helvetica,sans-Serif" font-style="italic" font-size="14.00" fill="#000000">movie_id</text>
<text text-anchor="start" x="83.5308" y="-123.3" font-family="Helvetica,sans-Serif" font-style="italic" font-size="14.00" fill="#000000">user_id</text>
<text text-anchor="start" x="89.3721" y="-109.3" font-family="Helvetica,sans-Serif" font-size="14.00" fill="#000000">score</text>
</g>
<!-- u&#45;&gt;r -->
<g id="edge1" class="edge">
<title>u&#45;&gt;r</title>
<path fill="none" stroke="#000000" d="M74.7549,-202.204C74.7549,-193.5341 74.7549,-184.3168 74.7549,-175.543"/>
<polygon fill="#000000" stroke="#000000" points="74.755,-175.5062 79.2549,-165.5062 74.7549,-170.5062 74.7549,-165.5062 74.7549,-165.5062 74.7549,-165.5062 74.7549,-170.5062 70.2549,-165.5063 74.755,-175.5062 74.755,-175.5062"/>
</g>
<!-- m -->
<g id="node2" class="node">
<title>m</title>
<polygon fill="none" stroke="#000000" stroke-width=".5" points="0,-.5 0,-64.5 149.5098,-64.5 149.5098,-.5 0,-.5"/>
<text text-anchor="start" x="8" y="-28.3" font-family="Helvetica,sans-Serif" font-size="14.00" fill="#000000">Movies</text>
<polyline fill="none" stroke="#000000" stroke-width=".5" points="60.3447,-.5 60.3447,-64.5 "/>
<text text-anchor="start" x="74.1895" y="-50.3" font-family="Helvetica,sans-Serif" font-weight="bold" font-size="14.00" fill="#000000">movie_id*</text>
<text text-anchor="start" x="94.0342" y="-36.3" font-family="Helvetica,sans-Serif" font-size="14.00" fill="#000000">title</text>
<text text-anchor="start" x="68.3447" y="-22.3" font-family="Helvetica,sans-Serif" font-size="14.00" fill="#000000">released_at</text>
<text text-anchor="start" x="78.0825" y="-8.3" font-family="Helvetica,sans-Serif" font-size="14.00" fill="#000000">imdb_url</text>
</g>
<!-- r&#45;&gt;m -->
<g id="edge2" class="edge">
<title>r&#45;&gt;m</title>
<path fill="none" stroke="#000000" d="M74.7549,-91.1361C74.7549,-82.3176 74.7549,-73.1592 74.7549,-64.7749"/>
<polygon fill="#000000" stroke="#000000" points="74.755,-91.2653 70.2549,-101.2652 74.7549,-96.2653 74.7549,-101.2653 74.7549,-101.2653 74.7549,-101.2653 74.7549,-96.2653 79.2549,-101.2653 74.755,-91.2653 74.755,-91.2653"/>
</g>
</g>
</svg>
